<svg width="130" height="105" viewBox="0 0 130 105" fill="none" xmlns="http://www.w3.org/2000/svg">
<path opacity="0.5" d="M129 8H130V7H129V8ZM0.292892 7.29289C-0.0976257 7.68342 -0.0976257 8.31658 0.292892 8.70711L6.65685 15.0711C7.04738 15.4616 7.68054 15.4616 8.07107 15.0711C8.46159 14.6805 8.46159 14.0474 8.07107 13.6569L2.41422 8L8.07107 2.34315C8.46159 1.95262 8.46159 1.31946 8.07107 0.928932C7.68054 0.538406 7.04738 0.538406 6.65685 0.928932L0.292892 7.29289ZM130 105V101.969H128V105H130ZM130 95.9062V89.8438H128V95.9062H130ZM130 83.7812V77.7188H128V83.7812H130ZM130 71.6562V65.5938H128V71.6562H130ZM130 59.5312V53.4688H128V59.5312H130ZM130 47.4062V41.3438H128V47.4062H130ZM130 35.2812V29.2188H128V35.2812H130ZM130 23.1562V17.0938H128V23.1562H130ZM130 11.0312V8H128V11.0312H130ZM129 7H126.091V9H129V7ZM120.273 7H114.455V9H120.273V7ZM108.636 7H102.818V9H108.636V7ZM97 7H91.1818V9H97V7ZM85.3636 7H79.5454V9H85.3636V7ZM73.7273 7H67.9091V9H73.7273V7ZM62.0909 7H56.2727V9H62.0909V7ZM50.4545 7H44.6363V9H50.4545V7ZM38.8182 7H33V9H38.8182V7ZM27.1818 7H21.3636V9H27.1818V7ZM15.5454 7H9.72724V9H15.5454V7ZM3.90906 7H1V9H3.90906V7Z" fill="#3DA2FD"/>
</svg>
