<svg width="24" height="24" viewBox="0 0 24 24" fill="none" xmlns="http://www.w3.org/2000/svg">
<g clip-path="url(#clip0_126_113)">
<path d="M12 0C5.38293 0 0 5.38293 0 12C0 18.6171 5.38293 24 12 24C18.6171 24 24 18.6171 24 12C24 5.38293 18.6171 0 12 0ZM18.082 9.45703L11.582 15.9569C11.387 16.1519 11.131 16.2501 10.875 16.2501C10.619 16.2501 10.363 16.1519 10.168 15.9569L6.91809 12.707C6.52698 12.316 6.52698 11.684 6.91809 11.293C7.30902 10.9019 7.94092 10.9019 8.33203 11.293L10.875 13.836L16.6681 8.04309C17.059 7.65198 17.6909 7.65198 18.082 8.04309C18.473 8.43402 18.473 9.06592 18.082 9.45703Z" fill="#BDFAE1"/>
<ellipse cx="12" cy="12" rx="8" ry="6" fill="#BDFAE1"/>
<path d="M17.7046 7.30262C18.0985 7.70631 18.0985 8.36069 17.7046 8.76418L10.941 15.6974C10.5472 16.1009 9.90896 16.1009 9.51513 15.6974L6.29537 12.3968C5.90154 11.9933 5.90154 11.3389 6.29537 10.9354C6.68901 10.5317 7.3274 10.5317 7.72104 10.9354L10.228 13.5051L16.2788 7.30262C16.6726 6.89913 17.311 6.89913 17.7046 7.30262Z" fill="#1D2E3D"/>
</g>
<defs>
<clipPath id="clip0_126_113">
<rect width="24" height="24" fill="white"/>
</clipPath>
</defs>
</svg>
