<svg width="781" height="488" viewBox="0 0 781 488" fill="none" xmlns="http://www.w3.org/2000/svg">
<path d="M608.113 26.8458C436.511 -29.2499 350.142 11.9633 295.593 64.6246C241.044 117.286 222.861 151.63 160.357 158.499C97.8535 165.368 39.8952 176.816 10.3479 253.518C-19.1995 330.221 18.3029 390.896 75.1247 428.674C75.352 428.789 75.5793 428.903 75.693 429.018L669.708 418.142C715.62 406.923 761.418 394.216 768.351 286.603C768.351 286.718 779.715 82.9416 608.113 26.8458Z" fill="#EEF7FF"/>
<path d="M679.822 454.662H763.123" stroke="#263238" stroke-miterlimit="10" stroke-linecap="round" stroke-linejoin="round"/>
<path d="M41.1453 454.662H91.1484" stroke="#263238" stroke-miterlimit="10" stroke-linecap="round" stroke-linejoin="round"/>
<g opacity="0.2">
<path d="M231.044 200.628H173.881V223.982H231.044V200.628Z" fill="#3DA2FD"/>
<path d="M428.784 136.519H371.621V159.873H428.784V136.519Z" fill="#3DA2FD"/>
<path d="M606.068 136.519H548.905V159.873H606.068V136.519Z" fill="#3DA2FD"/>
<path d="M708.347 180.021H651.184V203.376H708.347V180.021Z" fill="#3DA2FD"/>
<path d="M397.418 168.802H340.255V192.156H397.418V168.802Z" fill="#3DA2FD"/>
<path d="M298.207 136.519H241.044V159.873H298.207V136.519Z" fill="#3DA2FD"/>
<path d="M266.841 168.802H209.679V192.156H266.841V168.802Z" fill="#3DA2FD"/>
<path d="M332.186 168.802H275.024V192.156H332.186V168.802Z" fill="#3DA2FD"/>
<path d="M164.448 222.151H107.286V245.505H164.448V222.151Z" fill="#3DA2FD"/>
<path d="M136.265 168.802H79.1021V192.156H136.265V168.802Z" fill="#3DA2FD"/>
<path d="M201.61 168.802H144.447V192.156H201.61V168.802Z" fill="#3DA2FD"/>
<path d="M428.784 4.86548H371.621V28.2196H428.784V4.86548Z" fill="#3DA2FD"/>
<path d="M397.418 37.1492H340.255V60.5033H397.418V37.1492Z" fill="#3DA2FD"/>
<path d="M716.302 4.86548H659.139V28.2196H716.302V4.86548Z" fill="#3DA2FD"/>
<path d="M684.936 37.1492H627.773V60.5033H684.936V37.1492Z" fill="#3DA2FD"/>
<path d="M314.117 4.86548H256.954V28.2196H314.117V4.86548Z" fill="#3DA2FD"/>
<path d="M332.186 101.945H275.024V125.3H332.186V101.945Z" fill="#3DA2FD"/>
<path d="M495.151 255.579H437.989V278.933H495.151V255.579Z" fill="#3DA2FD"/>
<path d="M495.151 318.544H437.989V341.898H495.151V318.544Z" fill="#3DA2FD"/>
<path d="M231.044 319.688H173.881V343.043H231.044V319.688Z" fill="#3DA2FD"/>
<path d="M593.453 287.863H536.29V311.217H593.453V287.863Z" fill="#3DA2FD"/>
<path d="M562.201 318.315H505.038V341.669H562.201V318.315Z" fill="#3DA2FD"/>
<path d="M758.805 287.863H701.642V311.217H758.805V287.863Z" fill="#3DA2FD"/>
<path d="M727.666 318.315H670.503V341.669H727.666V318.315Z" fill="#3DA2FD"/>
<path d="M428.784 255.579H371.621V278.933H428.784V255.579Z" fill="#3DA2FD"/>
<path d="M462.877 287.863H405.714V311.217H462.877V287.863Z" fill="#3DA2FD"/>
<path d="M435.602 354.262H378.439V377.616H435.602V354.262Z" fill="#3DA2FD"/>
<path d="M517.426 385.172H460.263V408.526H517.426V385.172Z" fill="#3DA2FD"/>
<path d="M301.503 385.172H244.34V408.526H301.503V385.172Z" fill="#3DA2FD"/>
<path d="M138.31 385.172H81.1477V408.526H138.31V385.172Z" fill="#3DA2FD"/>
<path d="M346.278 208.871H289.115V232.225H346.278V208.871Z" fill="#3DA2FD"/>
<path d="M411.737 208.871H354.574V232.225H411.737V208.871Z" fill="#3DA2FD"/>
<path d="M593.567 208.871H536.404V232.225H593.567V208.871Z" fill="#3DA2FD"/>
<path d="M298.207 255.579H241.044V278.933H298.207V255.579Z" fill="#3DA2FD"/>
<path d="M361.165 322.207H304.003V345.561H361.165V322.207Z" fill="#3DA2FD"/>
<path d="M167.631 255.579H110.468V278.933H167.631V255.579Z" fill="#3DA2FD"/>
<path d="M164.448 341.211H107.286V364.565H164.448V341.211Z" fill="#3DA2FD"/>
<path d="M136.265 287.863H79.1021V311.217H136.265V287.863Z" fill="#3DA2FD"/>
<path d="M201.61 287.863H144.447V311.217H201.61V287.863Z" fill="#3DA2FD"/>
</g>
<path d="M718.121 259.128L734.258 414.822" stroke="#263238" stroke-width="2" stroke-miterlimit="10"/>
<path d="M731.644 385.057L724.371 377.272" stroke="#263238" stroke-width="2" stroke-miterlimit="10"/>
<path d="M726.644 379.562C726.644 379.562 726.871 376.128 723.689 373.266C721.757 371.548 711.984 367.427 710.961 370.861C709.938 374.754 720.052 382.195 726.644 379.562Z" fill="#92E3A9" stroke="#263238" stroke-miterlimit="10"/>
<path d="M726.644 379.562L717.211 373.723" stroke="#263238" stroke-width="0.5" stroke-miterlimit="10"/>
<path d="M733.576 402.687L726.189 394.902" stroke="#263238" stroke-width="2" stroke-miterlimit="10"/>
<path d="M728.462 397.307C728.462 397.307 728.689 393.872 725.507 391.01C723.575 389.293 713.802 385.172 712.779 388.606C711.87 392.498 721.984 399.94 728.462 397.307Z" fill="#92E3A9" stroke="#263238" stroke-miterlimit="10"/>
<path d="M728.462 397.307L719.03 391.354" stroke="#263238" stroke-width="0.5" stroke-miterlimit="10"/>
<path d="M727.212 341.783L719.939 333.999" stroke="#263238" stroke-width="2" stroke-miterlimit="10"/>
<path d="M722.098 336.403C722.098 336.403 722.325 332.968 719.143 330.106C717.211 328.389 707.438 324.268 706.415 327.702C705.506 331.594 715.62 339.036 722.098 336.403Z" fill="#92E3A9" stroke="#263238" stroke-miterlimit="10"/>
<path d="M722.098 336.403L712.779 330.45" stroke="#263238" stroke-width="0.5" stroke-miterlimit="10"/>
<path d="M729.03 359.528L721.757 351.743" stroke="#263238" stroke-width="2" stroke-miterlimit="10"/>
<path d="M723.916 354.033C723.916 354.033 724.144 350.598 720.962 347.736C719.03 346.019 709.256 341.898 708.234 345.332C707.324 349.224 717.439 356.78 723.916 354.033Z" fill="#92E3A9" stroke="#263238" stroke-miterlimit="10"/>
<path d="M723.916 354.033L714.597 348.194" stroke="#263238" stroke-width="0.5" stroke-miterlimit="10"/>
<path d="M724.257 313.048L716.984 305.264" stroke="#263238" stroke-width="2" stroke-miterlimit="10"/>
<path d="M719.143 307.668C719.143 307.668 719.371 304.233 716.189 301.371C714.257 299.654 704.483 295.533 703.461 298.967C702.551 302.86 712.666 310.301 719.143 307.668Z" fill="#92E3A9" stroke="#263238" stroke-miterlimit="10"/>
<path d="M719.143 307.668L709.711 301.715" stroke="#263238" stroke-width="0.5" stroke-miterlimit="10"/>
<path d="M721.303 284.199L713.916 276.415" stroke="#263238" stroke-width="2" stroke-miterlimit="10"/>
<path d="M716.188 278.704C716.188 278.704 716.416 275.27 713.234 272.408C711.302 270.69 701.528 266.569 700.506 270.004C699.597 273.896 709.597 281.452 716.188 278.704Z" fill="#92E3A9" stroke="#263238" stroke-miterlimit="10"/>
<path d="M716.189 278.704L706.756 272.866" stroke="#263238" stroke-width="0.5" stroke-miterlimit="10"/>
<path d="M730.508 374.525L736.076 365.366" stroke="#263238" stroke-width="2" stroke-miterlimit="10"/>
<path d="M734.372 368.114C734.372 368.114 733.462 364.794 735.963 361.36C737.44 359.299 746.304 353.117 747.895 356.437C749.6 359.986 741.304 369.373 734.372 368.114Z" fill="#92E3A9" stroke="#263238" stroke-miterlimit="10"/>
<path d="M734.372 368.114L742.781 359.986" stroke="#263238" stroke-width="0.5" stroke-miterlimit="10"/>
<path d="M725.621 327.931L731.189 318.772" stroke="#263238" stroke-width="2" stroke-miterlimit="10"/>
<path d="M729.485 321.52C729.485 321.52 728.575 318.2 731.076 314.766C732.553 312.705 741.417 306.523 743.008 309.843C744.827 313.392 736.417 322.894 729.485 321.52Z" fill="#92E3A9" stroke="#263238" stroke-miterlimit="10"/>
<path d="M729.485 321.52L738.008 313.392" stroke="#263238" stroke-width="0.5" stroke-miterlimit="10"/>
<path d="M723.575 307.439L729.03 298.395" stroke="#263238" stroke-width="2" stroke-miterlimit="10"/>
<path d="M727.439 301.143C727.439 301.143 726.53 297.823 729.03 294.388C730.508 292.327 739.372 286.146 740.963 289.465C742.668 292.9 734.258 302.402 727.439 301.143Z" fill="#92E3A9" stroke="#263238" stroke-miterlimit="10"/>
<path d="M727.439 301.143L735.849 292.9" stroke="#263238" stroke-width="0.5" stroke-miterlimit="10"/>
<path d="M720.393 277.445L725.962 268.401" stroke="#263238" stroke-width="2" stroke-miterlimit="10"/>
<path d="M724.257 271.034C724.257 271.034 723.348 267.714 725.848 264.28C727.326 262.219 736.19 256.037 737.781 259.357C739.599 262.906 731.189 272.408 724.257 271.034Z" fill="#92E3A9" stroke="#263238" stroke-miterlimit="10"/>
<path d="M724.257 271.034L732.78 262.906" stroke="#263238" stroke-width="0.5" stroke-miterlimit="10"/>
<path d="M718.007 258.326C718.007 258.326 717.098 255.007 719.598 251.572C721.075 249.511 729.939 243.329 731.53 246.649C733.349 250.084 724.939 259.586 718.007 258.326Z" fill="#92E3A9" stroke="#263238" stroke-miterlimit="10"/>
<path d="M718.007 258.327L726.53 250.084" stroke="#263238" stroke-width="0.5" stroke-miterlimit="10"/>
<path d="M718.575 258.67C718.575 258.67 715.166 259.242 712.097 256.38C710.279 254.663 705.051 245.161 708.461 243.902C712.097 242.528 720.507 251.801 718.575 258.67Z" fill="#92E3A9" stroke="#263238" stroke-miterlimit="10"/>
<path d="M718.575 258.67L711.416 249.282" stroke="#263238" stroke-width="0.5" stroke-miterlimit="10"/>
<path d="M760.737 280.536L744.713 436.23" stroke="#263238" stroke-width="2" stroke-miterlimit="10"/>
<path d="M748.236 406.58L742.667 397.421" stroke="#263238" stroke-width="2" stroke-miterlimit="10"/>
<path d="M744.372 400.169C744.372 400.169 745.281 396.849 742.781 393.414C741.304 391.354 732.44 385.286 730.849 388.492C729.03 392.04 737.44 401.428 744.372 400.169Z" fill="#92E3A9" stroke="#263238" stroke-miterlimit="10"/>
<path d="M744.372 400.169L736.303 392.498" stroke="#263238" stroke-width="0.5" stroke-miterlimit="10"/>
<path d="M752.668 363.42L747.1 354.262" stroke="#263238" stroke-width="2" stroke-miterlimit="10"/>
<path d="M748.804 357.009C748.804 357.009 749.713 353.689 747.213 350.255C745.736 348.194 736.872 342.127 735.281 345.332C733.462 348.881 741.872 358.269 748.804 357.009Z" fill="#92E3A9" stroke="#263238" stroke-miterlimit="10"/>
<path d="M748.804 357.009L740.849 349.224" stroke="#263238" stroke-width="0.5" stroke-miterlimit="10"/>
<path d="M750.85 381.05L745.281 371.892" stroke="#263238" stroke-width="2" stroke-miterlimit="10"/>
<path d="M746.986 374.639C746.986 374.639 747.895 371.319 745.395 367.885C743.918 365.824 735.053 359.757 733.462 362.962C731.644 366.511 740.054 375.899 746.986 374.639Z" fill="#92E3A9" stroke="#263238" stroke-miterlimit="10"/>
<path d="M746.986 374.639L739.031 366.969" stroke="#263238" stroke-width="0.5" stroke-miterlimit="10"/>
<path d="M755.623 334.571L750.054 325.527" stroke="#263238" stroke-width="2" stroke-miterlimit="10"/>
<path d="M751.759 328.274C751.759 328.274 752.668 324.955 750.168 321.52C748.691 319.459 739.826 313.392 738.235 316.597C736.531 320.032 744.827 329.534 751.759 328.274Z" fill="#92E3A9" stroke="#263238" stroke-miterlimit="10"/>
<path d="M751.759 328.274L743.804 320.49" stroke="#263238" stroke-width="0.5" stroke-miterlimit="10"/>
<path d="M758.578 305.722L753.009 296.563" stroke="#263238" stroke-width="2" stroke-miterlimit="10"/>
<path d="M754.714 299.311C754.714 299.311 755.623 295.991 753.123 292.556C751.645 290.496 742.781 284.428 741.19 287.634C739.485 291.183 747.781 300.57 754.714 299.311Z" fill="#92E3A9" stroke="#263238" stroke-miterlimit="10"/>
<path d="M754.714 299.311L746.759 291.641" stroke="#263238" stroke-width="0.5" stroke-miterlimit="10"/>
<path d="M749.145 396.047L756.418 388.263" stroke="#263238" stroke-width="2" stroke-miterlimit="10"/>
<path d="M754.259 390.552C754.259 390.552 754.032 387.118 757.214 384.256C759.146 382.539 768.919 378.417 769.942 381.852C770.851 385.744 760.737 393.3 754.259 390.552Z" fill="#92E3A9" stroke="#263238" stroke-miterlimit="10"/>
<path d="M754.259 390.552L764.146 384.37" stroke="#263238" stroke-width="0.5" stroke-miterlimit="10"/>
<path d="M753.918 349.453L761.305 341.669" stroke="#263238" stroke-width="2" stroke-miterlimit="10"/>
<path d="M759.032 344.073C759.032 344.073 758.805 340.638 761.987 337.776C763.919 336.059 773.692 331.938 774.715 335.372C775.624 339.15 765.51 346.706 759.032 344.073Z" fill="#92E3A9" stroke="#263238" stroke-miterlimit="10"/>
<path d="M759.032 344.073L769.033 337.776" stroke="#263238" stroke-width="0.5" stroke-miterlimit="10"/>
<path d="M756.077 328.961L763.351 321.177" stroke="#263238" stroke-width="2" stroke-miterlimit="10"/>
<path d="M761.191 323.581C761.191 323.581 760.964 320.146 764.146 317.284C766.078 315.567 775.851 311.446 776.874 314.88C777.783 318.773 767.669 326.214 761.191 323.581Z" fill="#92E3A9" stroke="#263238" stroke-miterlimit="10"/>
<path d="M761.191 323.581L771.078 317.284" stroke="#263238" stroke-width="0.5" stroke-miterlimit="10"/>
<path d="M759.146 298.967L766.419 291.183" stroke="#263238" stroke-width="2" stroke-miterlimit="10"/>
<path d="M764.26 293.587C764.26 293.587 764.032 290.152 767.214 287.29C769.146 285.573 778.92 281.452 779.942 284.886C780.852 288.664 770.737 296.22 764.26 293.587Z" fill="#92E3A9" stroke="#263238" stroke-miterlimit="10"/>
<path d="M764.26 293.587L774.147 287.29" stroke="#263238" stroke-width="0.5" stroke-miterlimit="10"/>
<path d="M760.737 279.735C760.737 279.735 760.509 276.3 763.691 273.438C765.623 271.721 775.397 267.6 776.42 271.034C777.329 274.926 767.214 282.368 760.737 279.735Z" fill="#92E3A9" stroke="#263238" stroke-miterlimit="10"/>
<path d="M760.737 279.735L770.737 273.438" stroke="#263238" stroke-width="0.5" stroke-miterlimit="10"/>
<path d="M761.191 280.192C761.191 280.192 757.782 280.078 755.282 276.644C753.804 274.583 750.736 264.28 754.259 263.707C758.123 263.02 764.487 273.896 761.191 280.192Z" fill="#92E3A9" stroke="#263238" stroke-miterlimit="10"/>
<path d="M761.191 280.192L756.077 269.546" stroke="#263238" stroke-width="0.5" stroke-miterlimit="10"/>
<path d="M742.326 217.228V414.021" stroke="#263238" stroke-width="2" stroke-miterlimit="10"/>
<path d="M742.44 384.485L735.962 375.899" stroke="#263238" stroke-width="2" stroke-miterlimit="10"/>
<path d="M738.008 378.532C738.008 378.532 738.576 375.097 735.735 372.006C734.031 370.175 724.598 364.908 723.348 368.343C721.984 372.006 731.19 380.478 738.008 378.532Z" fill="#92E3A9" stroke="#263238" stroke-miterlimit="10"/>
<path d="M738.008 378.532L729.257 371.663" stroke="#263238" stroke-width="0.5" stroke-miterlimit="10"/>
<path d="M742.44 347.507L735.962 338.921" stroke="#263238" stroke-width="2" stroke-miterlimit="10"/>
<path d="M738.008 341.554C738.008 341.554 738.576 338.12 735.735 335.029C734.031 333.197 724.598 327.931 723.348 331.365C721.984 335.029 731.19 343.5 738.008 341.554Z" fill="#92E3A9" stroke="#263238" stroke-miterlimit="10"/>
<path d="M738.008 341.554L729.257 334.685" stroke="#263238" stroke-width="0.5" stroke-miterlimit="10"/>
<path d="M742.44 304.005L735.962 295.533" stroke="#263238" stroke-width="2" stroke-miterlimit="10"/>
<path d="M738.008 298.052C738.008 298.052 738.576 294.617 735.735 291.526C734.031 289.694 724.598 284.428 723.348 287.863C721.984 291.526 731.19 300.112 738.008 298.052Z" fill="#92E3A9" stroke="#263238" stroke-miterlimit="10"/>
<path d="M738.008 298.052L729.257 291.183" stroke="#263238" stroke-width="0.5" stroke-miterlimit="10"/>
<path d="M742.44 275.155L735.962 266.569" stroke="#263238" stroke-width="2" stroke-miterlimit="10"/>
<path d="M738.008 269.202C738.008 269.202 738.576 265.768 735.735 262.677C734.031 260.845 724.598 255.579 723.348 259.014C721.984 262.677 731.19 271.149 738.008 269.202Z" fill="#92E3A9" stroke="#263238" stroke-miterlimit="10"/>
<path d="M738.008 269.202L729.257 262.333" stroke="#263238" stroke-width="0.5" stroke-miterlimit="10"/>
<path d="M742.44 246.077L735.962 237.605" stroke="#263238" stroke-width="2" stroke-miterlimit="10"/>
<path d="M738.008 240.124C738.008 240.124 738.576 236.69 735.735 233.599C734.031 231.767 724.598 226.501 723.348 229.935C721.984 233.599 731.19 242.07 738.008 240.124Z" fill="#92E3A9" stroke="#263238" stroke-miterlimit="10"/>
<path d="M738.008 240.124L729.257 233.255" stroke="#263238" stroke-width="0.5" stroke-miterlimit="10"/>
<path d="M742.326 395.704L748.804 387.232" stroke="#263238" stroke-width="2" stroke-miterlimit="10"/>
<path d="M746.872 389.751C746.872 389.751 746.304 386.316 749.145 383.225C750.85 381.394 760.282 376.128 761.532 379.562C762.896 383.225 753.577 391.811 746.872 389.751Z" fill="#92E3A9" stroke="#263238" stroke-miterlimit="10"/>
<path d="M746.872 389.751L756.077 382.538" stroke="#263238" stroke-width="0.5" stroke-miterlimit="10"/>
<path d="M742.326 336.861L748.804 328.389" stroke="#263238" stroke-width="2" stroke-miterlimit="10"/>
<path d="M746.872 330.907C746.872 330.907 746.304 327.473 749.145 324.382C750.85 322.55 760.282 317.284 761.532 320.719C762.896 324.496 753.577 332.968 746.872 330.907Z" fill="#92E3A9" stroke="#263238" stroke-miterlimit="10"/>
<path d="M746.872 330.907L756.077 323.695" stroke="#263238" stroke-width="0.5" stroke-miterlimit="10"/>
<path d="M742.326 307.897L748.804 299.425" stroke="#263238" stroke-width="2" stroke-miterlimit="10"/>
<path d="M746.872 301.944C746.872 301.944 746.304 298.509 749.145 295.418C750.85 293.587 760.282 288.321 761.532 291.755C762.896 295.418 753.577 303.89 746.872 301.944Z" fill="#92E3A9" stroke="#263238" stroke-miterlimit="10"/>
<path d="M746.872 301.944L756.077 294.731" stroke="#263238" stroke-width="0.5" stroke-miterlimit="10"/>
<path d="M742.326 269.546L748.804 260.96" stroke="#263238" stroke-width="2" stroke-miterlimit="10"/>
<path d="M746.872 263.593C746.872 263.593 746.304 260.158 749.145 257.067C750.85 255.236 760.282 249.969 761.532 253.404C762.896 257.067 753.577 265.539 746.872 263.593Z" fill="#92E3A9" stroke="#263238" stroke-miterlimit="10"/>
<path d="M746.872 263.593L756.077 256.266" stroke="#263238" stroke-width="0.5" stroke-miterlimit="10"/>
<path d="M742.326 239.323L748.804 230.851" stroke="#263238" stroke-width="2" stroke-miterlimit="10"/>
<path d="M746.872 233.37C746.872 233.37 746.304 229.935 749.145 226.844C750.85 225.013 760.282 219.746 761.532 223.181C762.896 226.844 753.577 235.316 746.872 233.37Z" fill="#92E3A9" stroke="#263238" stroke-miterlimit="10"/>
<path d="M746.872 233.37L756.077 226.157" stroke="#263238" stroke-width="0.5" stroke-miterlimit="10"/>
<path d="M741.985 219.975C741.985 219.975 741.417 216.541 744.258 213.45C745.963 211.618 755.395 206.352 756.645 209.787C758.009 213.45 748.69 221.922 741.985 219.975Z" fill="#92E3A9" stroke="#263238" stroke-miterlimit="10"/>
<path d="M741.985 219.975L751.19 212.763" stroke="#263238" stroke-width="0.5" stroke-miterlimit="10"/>
<path d="M742.44 220.433C742.44 220.433 739.031 220.662 736.19 217.457C734.485 215.511 730.394 205.665 733.803 204.635C737.667 203.605 745.054 213.793 742.44 220.433Z" fill="#92E3A9" stroke="#263238" stroke-miterlimit="10"/>
<path d="M742.44 220.433L736.303 210.359" stroke="#263238" stroke-width="0.5" stroke-miterlimit="10"/>
<path d="M750.395 465.079H729.712L727.098 412.418H753.009L750.395 465.079Z" fill="#263238" stroke="#263238" stroke-miterlimit="10"/>
<path d="M495.492 63.8232H206.042V242.299H495.492V63.8232Z" fill="#FFD4D4" stroke="#3DA2FD" stroke-miterlimit="10" stroke-linecap="round" stroke-linejoin="round"/>
<path d="M485.946 71.8369H215.702V234.286H485.946V71.8369Z" fill="white" stroke="#3DA2FD" stroke-miterlimit="10" stroke-linecap="round" stroke-linejoin="round"/>
<path d="M347.642 173.839H331.278V192.729H347.642V173.839Z" fill="#FF665C"/>
<path d="M257.409 161.476H241.044V192.729H257.409V161.476Z" fill="#FF665C"/>
<path d="M279.911 148.539H263.546V192.729H279.911V148.539Z" fill="#06BAB4"/>
<path d="M302.526 134.229H286.161V192.729H302.526V134.229Z" fill="#FF665C"/>
<path d="M325.141 168.344H308.776V192.614H325.141V168.344Z" fill="#06BAB4"/>
<path d="M370.257 139.61H353.893V192.729H370.257V139.61Z" fill="#06BAB4"/>
<path d="M392.872 130.222H376.508V192.729H392.872V130.222Z" fill="#FF665C"/>
<path d="M415.374 121.751H399.009V192.614H415.374V121.751Z" fill="#06BAB4"/>
<path d="M437.989 147.509H421.624V192.614H437.989V147.509Z" fill="#FF665C"/>
<path d="M460.49 161.476H444.125V192.729H460.49V161.476Z" fill="#06BAB4"/>
<path d="M311.39 96.4503H390.145" stroke="#FF665C" stroke-miterlimit="10" stroke-linecap="round" stroke-linejoin="round"/>
<path d="M241.044 203.147H256.5" stroke="#FF665C" stroke-miterlimit="10" stroke-linecap="round" stroke-linejoin="round"/>
<path d="M263.659 203.147H279.229" stroke="#FF665C" stroke-miterlimit="10" stroke-linecap="round" stroke-linejoin="round"/>
<path d="M286.388 203.147H301.844" stroke="#FF665C" stroke-miterlimit="10" stroke-linecap="round" stroke-linejoin="round"/>
<path d="M309.003 203.147H324.573" stroke="#FF665C" stroke-miterlimit="10" stroke-linecap="round" stroke-linejoin="round"/>
<path d="M331.732 203.147H347.187" stroke="#FF665C" stroke-miterlimit="10" stroke-linecap="round" stroke-linejoin="round"/>
<path d="M354.347 203.147H369.803" stroke="#FF665C" stroke-miterlimit="10" stroke-linecap="round" stroke-linejoin="round"/>
<path d="M377.076 203.147H392.531" stroke="#FF665C" stroke-miterlimit="10" stroke-linecap="round" stroke-linejoin="round"/>
<path d="M399.691 203.147H415.146" stroke="#FF665C" stroke-miterlimit="10" stroke-linecap="round" stroke-linejoin="round"/>
<path d="M422.306 203.147H437.875" stroke="#FF665C" stroke-miterlimit="10" stroke-linecap="round" stroke-linejoin="round"/>
<path d="M445.035 203.147H460.49" stroke="#FF665C" stroke-miterlimit="10" stroke-linecap="round" stroke-linejoin="round"/>
<path d="M230.703 192.729H476.741" stroke="#FF665C" stroke-miterlimit="10" stroke-linecap="round" stroke-linejoin="round"/>
<path d="M230.703 186.203H235.817" stroke="#FF665C" stroke-miterlimit="10" stroke-linecap="round" stroke-linejoin="round"/>
<path d="M230.703 179.449H235.817" stroke="#FF665C" stroke-miterlimit="10" stroke-linecap="round" stroke-linejoin="round"/>
<path d="M230.703 172.695H235.817" stroke="#FF665C" stroke-miterlimit="10" stroke-linecap="round" stroke-linejoin="round"/>
<path d="M230.703 165.94H235.817" stroke="#FF665C" stroke-miterlimit="10" stroke-linecap="round" stroke-linejoin="round"/>
<path d="M230.703 159.186H235.817" stroke="#FF665C" stroke-miterlimit="10" stroke-linecap="round" stroke-linejoin="round"/>
<path d="M230.703 152.432H235.817" stroke="#FF665C" stroke-miterlimit="10" stroke-linecap="round" stroke-linejoin="round"/>
<path d="M230.703 145.677H235.817" stroke="#FF665C" stroke-miterlimit="10" stroke-linecap="round" stroke-linejoin="round"/>
<path d="M230.703 138.923H235.817" stroke="#FF665C" stroke-miterlimit="10" stroke-linecap="round" stroke-linejoin="round"/>
<path d="M230.703 132.168H235.817" stroke="#FF665C" stroke-miterlimit="10" stroke-linecap="round" stroke-linejoin="round"/>
<path d="M230.703 125.414H235.817" stroke="#FF665C" stroke-miterlimit="10" stroke-linecap="round" stroke-linejoin="round"/>
<path d="M230.703 118.66H235.817" stroke="#FF665C" stroke-miterlimit="10" stroke-linecap="round" stroke-linejoin="round"/>
<path d="M230.703 111.905H235.817" stroke="#FF665C" stroke-miterlimit="10" stroke-linecap="round" stroke-linejoin="round"/>
<path opacity="0.5" d="M301.162 113.394H289.343C288.206 113.394 287.411 114.309 287.411 115.34V123.468C287.411 124.613 288.32 125.414 289.343 125.414H292.752L295.025 130.222L297.298 125.529H301.162C302.298 125.529 303.094 124.613 303.094 123.582V115.454C303.094 114.195 302.298 113.394 301.162 113.394Z" fill="#3DA2FD"/>
<path opacity="0.5" d="M277.41 129.077H265.591C264.455 129.077 263.659 129.993 263.659 131.024V139.152C263.659 140.297 264.569 141.098 265.591 141.098H269.001L271.274 145.906L273.546 141.212H277.41C278.547 141.212 279.342 140.297 279.342 139.266V131.138C279.456 129.879 278.547 129.077 277.41 129.077Z" fill="#3DA2FD"/>
<path opacity="0.5" d="M254.682 139.266H242.863C241.726 139.266 240.931 140.182 240.931 141.212V149.341C240.931 150.485 241.84 151.287 242.863 151.287H246.272L248.545 156.095L250.818 151.401H254.682C255.818 151.401 256.613 150.485 256.613 149.455V141.327C256.727 140.068 255.818 139.266 254.682 139.266Z" fill="#3DA2FD"/>
<path opacity="0.5" d="M323.209 149.226H311.39C310.253 149.226 309.458 150.142 309.458 151.172V159.3C309.458 160.445 310.367 161.247 311.39 161.247H314.799L317.072 166.055L319.345 161.361H323.209C324.345 161.361 325.141 160.445 325.141 159.415V151.287C325.141 150.027 324.231 149.226 323.209 149.226Z" fill="#3DA2FD"/>
<path opacity="0.5" d="M345.937 153.462H334.118C332.982 153.462 332.187 154.378 332.187 155.408V163.536C332.187 164.681 333.096 165.482 334.118 165.482H337.528L339.801 170.291L342.074 165.597H345.937C347.074 165.597 347.869 164.681 347.869 163.651V155.523C347.869 154.263 346.96 153.462 345.937 153.462Z" fill="#3DA2FD"/>
<path opacity="0.5" d="M368.666 120.377H356.847C355.711 120.377 354.915 121.293 354.915 122.323V130.451C354.915 131.596 355.824 132.397 356.847 132.397H360.257L362.529 137.206L364.802 132.512H368.666C369.803 132.512 370.598 131.596 370.598 130.566V122.437C370.598 121.178 369.689 120.377 368.666 120.377Z" fill="#3DA2FD"/>
<path opacity="0.5" d="M390.827 110.074H379.008C377.871 110.074 377.076 110.989 377.076 112.02V120.148C377.076 121.293 377.985 122.094 379.008 122.094H382.417L384.69 126.902L386.963 122.209H390.827C391.963 122.209 392.759 121.293 392.759 120.262V112.134C392.872 110.989 391.963 110.074 390.827 110.074Z" fill="#3DA2FD"/>
<path opacity="0.5" d="M413.328 102.174H401.509C400.373 102.174 399.577 103.09 399.577 104.12V112.249C399.577 113.393 400.486 114.195 401.509 114.195H404.918L407.191 119.003L409.464 114.309H413.328C414.464 114.309 415.26 113.393 415.26 112.363V104.235C415.374 103.09 414.464 102.174 413.328 102.174Z" fill="#3DA2FD"/>
<path opacity="0.5" d="M435.375 128.047H423.556C422.42 128.047 421.624 128.963 421.624 129.993V138.121C421.624 139.266 422.533 140.068 423.556 140.068H426.965L429.238 144.876L431.511 140.182H435.375C436.511 140.182 437.307 139.266 437.307 138.236V130.108C437.307 128.963 436.398 128.047 435.375 128.047Z" fill="#3DA2FD"/>
<path opacity="0.5" d="M458.786 141.441H446.967C445.83 141.441 445.035 142.357 445.035 143.388V151.516C445.035 152.661 445.944 153.462 446.967 153.462H450.376L452.649 158.27L454.922 153.576H458.786C459.922 153.576 460.717 152.661 460.717 151.63V143.502C460.831 142.357 459.922 141.441 458.786 141.441Z" fill="#3DA2FD"/>
<path d="M385.258 195.248L379.462 188.264C379.462 188.264 377.303 181.624 375.598 179.335C373.894 177.16 369.802 176.816 364.802 173.725C359.802 170.634 357.87 170.978 358.779 174.526C359.575 178.19 365.37 182.082 365.37 182.082C365.37 182.082 354.347 181.853 353.551 181.51C352.756 181.281 345.255 178.991 343.664 177.846C341.96 176.702 338.664 177.846 340.369 181.51C342.073 185.173 347.301 192.958 351.165 195.705C355.029 198.453 354.233 199.025 361.62 200.17C369.121 201.315 371.053 200.972 371.053 200.972L375.485 205.093L385.258 195.248Z" fill="white" stroke="#031627" stroke-miterlimit="10" stroke-linecap="round" stroke-linejoin="round"/>
<path d="M349.006 193.874C349.006 193.874 344.346 177.732 347.074 180.022C349.801 182.197 355.37 191.699 355.37 191.699C355.37 191.699 368.325 189.753 371.962 193.645" fill="white"/>
<path d="M349.006 193.874C349.006 193.874 344.346 177.732 347.074 180.022C349.801 182.197 355.37 191.699 355.37 191.699C355.37 191.699 368.325 189.753 371.962 193.645" stroke="#031627" stroke-miterlimit="10" stroke-linecap="round" stroke-linejoin="round"/>
<path d="M392.986 201.429L382.985 193.645L372.757 205.551L383.894 212.763L392.986 201.429Z" fill="white" stroke="#031627" stroke-miterlimit="10" stroke-linecap="round" stroke-linejoin="round"/>
<path d="M449.126 272.064L447.194 284.657C447.194 284.657 440.375 304.348 440.716 308.126C440.943 311.789 449.126 421.462 449.126 421.462H538.563C538.563 421.462 535.04 304.119 534.699 301.257C534.472 298.395 531.858 277.903 531.858 277.903C531.858 277.903 479.809 278.132 478.105 277.788C476.4 277.559 448.33 269.775 448.33 269.775L449.126 272.064Z" fill="#031627" stroke="#031627" stroke-miterlimit="10" stroke-linecap="round" stroke-linejoin="round"/>
<path d="M473.559 325.87L493.788 331.594" stroke="#031627" stroke-miterlimit="10" stroke-linecap="round" stroke-linejoin="round"/>
<path d="M486.06 329.877L489.583 418.6" stroke="#031627" stroke-miterlimit="10" stroke-linecap="round" stroke-linejoin="round"/>
<path d="M491.515 290.954C512.425 290.152 521.63 289.122 532.313 281.681C532.085 279.391 531.858 277.788 531.858 277.788C531.858 277.788 479.809 278.017 478.105 277.674C476.4 277.445 448.33 269.66 448.33 269.66L449.126 271.95L447.648 281.108C454.353 284.428 472.195 291.755 491.515 290.954Z" fill="#BCDFFF" stroke="#031627" stroke-miterlimit="10" stroke-linecap="round" stroke-linejoin="round"/>
<path d="M480.946 286.146V290.152L491.515 290.954L492.083 286.26L480.946 286.146Z" fill="#031627" stroke="#031627" stroke-miterlimit="10" stroke-linecap="round" stroke-linejoin="round"/>
<path d="M480.264 153.576C480.264 153.576 441.284 164.452 440.261 165.482C439.125 166.627 433.897 198.338 433.897 198.338L423.67 214.709L394.349 199.14C394.349 199.14 388.554 201.887 387.19 203.605C385.826 205.322 378.098 213.908 380.599 216.655C383.099 219.403 418.101 244.474 423.442 247.794C428.67 251.114 430.943 251.916 433.329 249.168C435.829 246.421 447.989 229.363 447.989 229.363L447.421 265.195C447.421 265.195 443.784 266.569 444.694 269.889C445.489 273.209 447.194 275.155 447.194 275.155H450.489C450.489 275.155 464.013 287.061 492.197 286.031C520.38 284.886 529.699 280.421 531.972 277.674C534.131 274.926 534.472 274.926 533.904 272.637C533.336 270.462 533.108 267.371 533.108 267.371L540.836 218.716L562.883 234.057C562.883 234.057 584.134 237.377 587.771 234.858C591.408 232.339 592.43 230.737 589.703 225.699C586.975 220.662 564.019 193.416 564.019 193.416C564.019 193.416 555.155 171.435 553.791 169.489C552.428 167.543 515.948 153.347 515.948 153.347H480.264V153.576Z" fill="white" stroke="#031627" stroke-miterlimit="10" stroke-linecap="round" stroke-linejoin="round"/>
<path d="M423.556 214.709C423.556 214.709 427.306 219.747 427.647 223.982" stroke="#031627" stroke-miterlimit="10" stroke-linecap="round" stroke-linejoin="round"/>
<path d="M447.876 229.477V195.019L445.716 183.57" stroke="#031627" stroke-miterlimit="10" stroke-linecap="round" stroke-linejoin="round"/>
<path d="M442.307 186.89L440.716 182.998" stroke="#031627" stroke-miterlimit="10" stroke-linecap="round" stroke-linejoin="round"/>
<path d="M447.876 200.056L444.012 190.897" stroke="#031627" stroke-miterlimit="10" stroke-linecap="round" stroke-linejoin="round"/>
<path d="M540.722 218.945L547.541 185.86" stroke="#031627" stroke-miterlimit="10" stroke-linecap="round" stroke-linejoin="round"/>
<path d="M549.814 195.591C547.2 199.483 544.587 203.948 543.791 206.696" stroke="#031627" stroke-miterlimit="10" stroke-linecap="round" stroke-linejoin="round"/>
<path d="M555.042 188.035C555.042 188.035 553.905 189.638 552.314 191.928" stroke="#031627" stroke-miterlimit="10" stroke-linecap="round" stroke-linejoin="round"/>
<path d="M553.337 205.894C553.337 205.894 559.133 198.109 566.292 198.109" stroke="#031627" stroke-miterlimit="10" stroke-linecap="round" stroke-linejoin="round"/>
<path d="M516.289 261.646C522.426 253.289 531.29 241.154 534.017 236.232" stroke="#031627" stroke-miterlimit="10" stroke-linecap="round" stroke-linejoin="round"/>
<path d="M510.039 270.118C510.039 270.118 511.402 268.286 513.562 265.31" stroke="#031627" stroke-miterlimit="10" stroke-linecap="round" stroke-linejoin="round"/>
<path d="M530.722 254.778L520.835 270.118" stroke="#031627" stroke-miterlimit="10" stroke-linecap="round" stroke-linejoin="round"/>
<path d="M488.219 144.99C488.219 144.99 484.924 145.219 484.128 146.135C483.333 146.936 477.196 153.92 477.196 153.92C477.196 153.92 477.991 179.564 479.355 178.648C480.719 177.732 491.515 167.772 492.651 166.742C493.788 165.597 508.675 179.564 509.471 180.136C510.266 180.708 510.834 183.227 511.63 180.708C512.425 178.19 520.721 156.209 519.926 154.034C519.13 151.859 513.903 145.105 513.903 145.105C513.903 145.105 493.788 149.112 488.219 144.99Z" fill="white" stroke="#031627" stroke-miterlimit="10" stroke-linecap="round" stroke-linejoin="round"/>
<path d="M482.196 90.9552C482.196 90.9552 474.696 101.258 475.264 103.434C475.832 105.609 474.127 109.501 474.127 109.501C474.127 109.501 464.24 117.286 465.263 119.461C466.4 121.636 469.354 124.498 469.354 124.498C469.354 124.498 469.127 143.96 471.514 143.96C473.9 143.96 483.901 144.532 483.901 144.532C483.901 144.532 492.197 175.099 494.924 173.496C497.652 171.779 513.448 147.051 513.448 147.051L516.516 135.374C516.516 135.374 527.881 130.337 531.176 113.966C534.472 97.5951 525.381 87.8642 519.585 83.6284C513.789 79.3926 501.856 78.9347 501.856 78.9347C501.856 78.9347 506.289 76.1871 501.856 74.241C497.424 72.2948 491.401 75.0423 491.401 75.0423C491.401 75.0423 491.174 67.83 484.81 71.7224C478.559 75.7292 470.832 83.1705 482.196 90.9552Z" fill="white" stroke="#031627" stroke-miterlimit="10" stroke-linecap="round" stroke-linejoin="round"/>
<path d="M519.698 83.7429C513.903 79.6216 501.97 79.0492 501.97 79.0492C501.97 79.0492 506.402 76.3017 501.97 74.3555C497.538 72.4093 491.515 75.1568 491.515 75.1568C491.515 75.1568 491.288 67.9445 484.923 71.8369C478.559 75.7292 470.832 83.285 482.196 91.0697C482.196 91.0697 505.152 93.0159 499.015 96.9082C492.992 100.801 490.151 101.03 494.356 103.892C498.447 106.639 502.084 112.821 502.084 112.821C502.084 112.821 499.015 118.889 500.379 120.033C501.743 121.178 503.447 121.407 504.47 119.804C505.607 118.087 508.902 112.249 513.562 113.737C518.221 115.111 517.653 121.293 514.13 125.185C510.493 129.077 505.607 130.222 505.607 130.222C505.607 130.222 512.198 134.115 514.471 134.916C515.153 135.145 516.403 135.145 518.107 135.03C521.176 133.084 528.79 127.246 531.404 114.424C534.586 97.5951 525.494 87.8642 519.698 83.7429Z" fill="#041634" stroke="#041634" stroke-miterlimit="10" stroke-linecap="round" stroke-linejoin="round"/>
<path d="M473.9 128.276C473.9 128.276 479.127 128.047 481.628 125.185C481.628 125.185 481.059 130.795 479.128 131.024C477.196 131.253 473.9 128.276 473.9 128.276Z" stroke="#031627" stroke-miterlimit="10" stroke-linecap="round" stroke-linejoin="round"/>
<path d="M481.855 110.303C481.855 111.447 481.4 112.363 480.718 112.363C480.037 112.363 479.582 111.447 479.582 110.303C479.582 109.158 480.037 108.242 480.718 108.242C481.4 108.242 481.855 109.158 481.855 110.303Z" fill="#031627"/>
<path d="M477.991 106.296C477.991 106.296 482.423 103.548 484.582 107.097" stroke="#031627" stroke-miterlimit="10" stroke-linecap="round" stroke-linejoin="round"/>
<path d="M484.128 144.647L493.447 144.418L499.015 138.579L488.219 157.125L484.128 144.647Z" fill="#041634" stroke="#041634" stroke-miterlimit="10" stroke-linecap="round" stroke-linejoin="round"/>
<path d="M538.222 215.282L529.585 210.817C529.585 210.817 527.426 207.726 525.153 206.696C522.994 205.551 521.062 206.696 514.357 204.749C507.766 202.803 505.266 203.032 506.402 206.123C507.538 209.214 514.357 209.443 514.357 209.443L517.084 211.16L498.561 214.824L489.128 218.945C488.674 219.174 488.446 219.632 488.446 220.09C488.56 220.662 489.128 221.12 489.696 221.006L497.992 219.746L507.538 219.059L492.197 226.157C491.515 226.501 491.174 227.188 491.287 227.989C491.515 229.019 492.424 229.592 493.447 229.248L508.561 225.699L498.788 233.255C498.22 233.599 497.992 234.4 498.22 235.087C498.561 235.888 499.356 236.117 500.152 235.888L509.698 231.767L505.038 237.949C504.811 238.292 504.811 238.75 505.038 239.094C505.379 239.437 505.834 239.552 506.288 239.323C508.448 237.834 514.925 233.141 515.607 232.912C516.403 232.683 523.108 229.821 524.13 229.592C525.267 229.363 529.358 227.875 529.358 227.875L538.222 230.966V215.282Z" stroke="#031627" stroke-miterlimit="10" stroke-linecap="round" stroke-linejoin="round"/>
<path d="M546.518 216.655L538.222 215.282L536.518 233.141L545.95 235.087C545.95 235.087 547.086 220.09 546.518 216.655Z" fill="white" stroke="#031627" stroke-miterlimit="10" stroke-linecap="round" stroke-linejoin="round"/>
<path d="M584.589 218.945C584.589 218.945 547.882 213.336 546.518 216.77C545.154 220.09 542.654 236.804 546.291 238.178C549.927 239.552 583.793 252.946 586.634 250.656C589.362 248.481 594.93 242.643 594.93 236.232C594.817 229.821 584.589 218.945 584.589 218.945Z" fill="white" stroke="#031627" stroke-miterlimit="10" stroke-linecap="round" stroke-linejoin="round"/>
<path d="M41.6406 487L254.712 377.527H539.979L749.531 487" fill="#FFE3E1"/>
<path d="M41.6406 487L254.712 377.527H539.979L749.531 487" stroke="#263238" stroke-miterlimit="10" stroke-linecap="round" stroke-linejoin="round"/>
<path d="M477.9 401.3L526.3 399.9L555.8 428.5L499.6 430.2L477.9 401.3Z" fill="#BCDFFF" stroke="#51ABFD" stroke-miterlimit="10" stroke-linecap="round" stroke-linejoin="round"/>
<path d="M528.3 406.1L513 407.1L527 422.2L543.4 421.1L528.3 406.1Z" fill="#BCDFFF" stroke="#51ABFD" stroke-miterlimit="10" stroke-linecap="round" stroke-linejoin="round"/>
<path d="M488.6 405L507.3 404.5L525.4 425.3L504.3 426L488.6 405Z" fill="#51ABFD" stroke="#51ABFD" stroke-miterlimit="10" stroke-linecap="round" stroke-linejoin="round"/>
<path d="M499.6 430.2L486.8 378.5L466 358L477.9 401.3L499.6 430.2Z" fill="#BCDFFF" stroke="#51ABFD" stroke-miterlimit="10" stroke-linecap="round" stroke-linejoin="round"/>
<path d="M388.213 405.549L352.642 428.331L404.464 433.597L434.125 410.243L388.213 405.549Z" fill="white" stroke="#263238" stroke-miterlimit="10" stroke-linecap="round" stroke-linejoin="round"/>
<path d="M416.624 413.677L378.212 440.695L428.897 445.961L462.081 419.63L416.624 413.677Z" fill="white" stroke="#263238" stroke-miterlimit="10" stroke-linecap="round" stroke-linejoin="round"/>
<path d="M336.96 406.122L322.981 439.55L372.985 441.267L381.167 407.266L336.96 406.122Z" fill="white" stroke="#263238" stroke-miterlimit="10" stroke-linecap="round" stroke-linejoin="round"/>
<path d="M663.571 338.578L692.664 346.362C695.278 347.049 697.664 348.538 699.369 350.598C702.437 354.147 703.46 359.07 702.097 363.649L676.754 448.594L639.82 429.705L663.571 338.578Z" fill="#041634" stroke="#263238" stroke-miterlimit="10" stroke-linecap="round" stroke-linejoin="round"/>
<path d="M598.794 309.5C598.794 309.5 582.543 315.453 580.157 318.2C577.77 320.833 570.952 366.511 570.952 366.511C570.952 366.511 564.133 368.915 564.133 370.632C564.133 372.464 564.133 372.464 564.133 372.464C564.133 372.464 556.746 375.784 554.019 377.845C551.405 379.905 550.496 380.249 554.019 383.798C557.542 387.347 562.883 393.987 569.133 396.047C575.384 398.108 576.634 398.451 576.634 398.451L650.957 435.887C650.957 435.887 674.254 327.816 674.481 325.412C674.822 323.008 639.593 305.378 636.297 303.661C633.115 301.715 598.794 309.5 598.794 309.5Z" fill="#FF665C" stroke="#031627" stroke-miterlimit="10" stroke-linecap="round" stroke-linejoin="round"/>
<path d="M600.84 307.668C600.84 307.668 597.544 311.217 597.885 312.705C598.226 314.193 599.022 322.55 599.022 324.611C599.022 326.672 599.022 337.089 599.022 337.089L609.363 309.957L607.545 304.92L600.84 307.668Z" fill="#FF665C" stroke="#263238" stroke-miterlimit="10" stroke-linecap="round" stroke-linejoin="round"/>
<path d="M638.456 295.533L630.728 291.984L605.386 313.048C605.386 313.048 602.09 319.345 600.613 328.847C599.135 338.349 596.749 367.656 596.749 367.656C596.749 367.656 608.34 342.928 609.818 340.18C611.295 337.547 611.636 326.214 611.636 326.214C611.636 326.214 625.842 321.406 630.274 313.048C634.592 304.691 638.456 295.533 638.456 295.533Z" fill="white" stroke="#263238" stroke-miterlimit="10" stroke-linecap="round" stroke-linejoin="round"/>
<path d="M575.157 266.569C575.157 266.569 576.293 273.781 577.202 275.27C578.112 276.758 579.248 282.711 579.248 282.711C579.248 282.711 578.68 291.068 580.157 293.701C581.635 296.334 589.59 311.331 593.453 311.903C597.317 312.476 603.568 309.843 603.568 309.843L604.136 317.055C604.136 317.055 608.227 319.688 618 315.567C627.774 311.446 632.547 304.577 633.115 301.829C633.683 299.196 628.342 286.031 628.342 286.031V278.246C628.342 278.246 633.115 272.865 631.865 264.852C630.729 256.838 632.433 254.434 616.75 250.198C601.068 246.077 582.089 252.602 577.657 255.579C573.339 258.555 575.157 266.569 575.157 266.569Z" fill="white" stroke="#041634" stroke-miterlimit="10" stroke-linecap="round" stroke-linejoin="round"/>
<path d="M611.182 265.653L613.568 267.714L614.477 274.239C614.477 274.239 617.432 276.3 618.341 273.323C619.25 270.347 617.773 265.31 621.296 263.478C624.819 261.646 628.115 261.074 628.115 267.37C628.115 273.667 624.819 283.741 624.819 283.741C624.819 283.741 627.774 287.29 628.342 285.802C628.91 284.314 633.115 259.815 633.115 259.815C633.115 259.815 627.205 256.266 623.342 255.007C619.478 254.091 611.182 265.653 611.182 265.653Z" fill="#041634" stroke="#041634" stroke-miterlimit="10" stroke-linecap="round" stroke-linejoin="round"/>
<path d="M599.704 256.151C599.704 256.151 592.317 259.471 591.749 263.02C591.181 266.569 586.976 272.293 580.839 272.293C574.589 272.293 575.27 265.424 571.634 265.081C568.111 264.737 561.52 265.997 561.52 255.235C561.52 244.474 568.906 243.902 571.861 241.841C574.816 239.781 570.952 239.437 575.725 233.484C580.498 227.531 584.589 229.592 588.794 229.592C592.885 229.592 591.749 223.982 599.136 223.295C606.522 222.723 609.25 225.127 610.386 226.615C611.523 228.103 617.773 226.272 622.205 229.248C626.637 232.225 626.978 234.858 629.365 237.605C631.751 240.238 636.183 238.521 635.615 244.474C635.047 250.427 633.229 253.175 634.138 254.663C635.047 256.151 636.752 256.151 635.956 258.784C635.047 261.417 631.865 263.822 632.092 264.737C632.433 265.653 625.274 266.226 621.41 263.593C617.546 260.96 618.455 265.653 611.295 265.653C604.136 265.653 598.795 260.044 599.704 256.151Z" fill="#041634" stroke="#041634" stroke-miterlimit="10" stroke-linecap="round" stroke-linejoin="round"/>
<path d="M618.341 273.438C618.341 273.438 618.682 266.569 621.296 263.593C623.91 260.616 628.683 264.165 627.774 270.805C626.865 277.33 623.001 284.543 620.046 284.199" fill="white"/>
<path d="M618.341 273.438C618.341 273.438 618.682 266.569 621.296 263.593C623.91 260.616 628.683 264.165 627.774 270.805C626.865 277.33 623.001 284.543 620.046 284.199" stroke="#041634" stroke-miterlimit="10" stroke-linecap="round" stroke-linejoin="round"/>
<path d="M604.136 316.941C604.136 316.941 608.227 319.574 618 315.453C627.774 311.331 632.547 304.462 633.115 301.715C633.456 300.227 631.978 295.762 630.615 291.984C622.546 304.462 603.454 309.843 603.454 309.843L604.136 316.941Z" fill="white" stroke="#263238" stroke-miterlimit="10" stroke-linecap="round" stroke-linejoin="round"/>
<path d="M603.568 309.843L617.091 298.738L611.864 306.18L603.568 309.843Z" fill="#263238" stroke="#263238" stroke-miterlimit="10" stroke-linecap="round" stroke-linejoin="round"/>
<path d="M586.407 295.533C586.407 295.533 593.226 299.654 601.181 291.411" stroke="#263238" stroke-miterlimit="10" stroke-linecap="round" stroke-linejoin="round"/>
<path d="M598.567 279.849C599.022 281.337 598.908 282.711 598.113 282.94C597.431 283.169 596.408 282.138 595.954 280.65C595.499 279.162 595.613 277.788 596.408 277.559C597.204 277.33 598.113 278.361 598.567 279.849Z" fill="#263238"/>
<path d="M584.93 279.849C585.385 281.337 585.271 282.711 584.475 282.94C583.794 283.169 582.771 282.138 582.316 280.65C581.862 279.162 581.975 277.788 582.771 277.559C583.566 277.33 584.475 278.361 584.93 279.849Z" fill="#263238"/>
<path d="M593.453 274.926C593.453 274.926 599.022 271.95 602.09 275.499" stroke="#263238" stroke-miterlimit="10" stroke-linecap="round" stroke-linejoin="round"/>
<path d="M579.248 274.583C579.248 274.583 583.339 273.095 584.021 274.926L586.408 279.963L584.93 293.129L592.658 291.64" stroke="#263238" stroke-miterlimit="10" stroke-linecap="round" stroke-linejoin="round"/>
<path d="M638.456 295.533C638.456 295.533 620.159 321.177 611.522 326.214L618 337.547C618 337.547 635.729 321.406 639.024 314.308C642.32 307.095 642.32 307.095 642.32 307.095L638.456 295.533Z" fill="#FF665C" stroke="#263238" stroke-miterlimit="10" stroke-linecap="round" stroke-linejoin="round"/>
<path d="M641.752 335.143L635.842 387.003C635.842 387.003 632.319 387.003 632.319 389.407C632.319 391.811 631.751 394.444 631.751 394.444L571.974 406.35C571.974 406.35 550.382 403.374 548.564 403.946C546.746 404.519 541.859 409.212 540.041 410.701C538.222 412.189 531.063 418.943 532.199 420.775C533.336 422.607 538.45 418.257 538.45 418.257C538.45 418.257 534.018 424.553 536.404 423.981C538.791 423.408 541.745 420.088 541.745 420.088L546.405 417.226C546.405 417.226 540.836 424.667 542.654 424.324C544.473 423.981 547.655 421.691 547.655 421.691L549.7 420.546C549.7 420.546 545.836 424.438 547.882 425.011C549.928 425.583 554.36 420.89 554.36 420.89L558.224 418.485C558.224 418.485 561.519 420.546 566.52 419.058C571.52 417.57 575.156 416.081 575.156 416.081C575.156 416.081 646.752 422.607 651.525 421.119C656.298 419.63 660.957 419.287 662.208 416.654C663.344 414.021 673.458 327.244 674.595 325.412C675.731 323.581 655.957 315.91 655.957 315.91" fill="#FF665C"/>
<path d="M641.752 335.143L635.842 387.003C635.842 387.003 632.319 387.003 632.319 389.407C632.319 391.811 631.751 394.444 631.751 394.444L571.974 406.35C571.974 406.35 550.382 403.374 548.564 403.946C546.746 404.519 541.859 409.212 540.041 410.701C538.222 412.189 531.063 418.943 532.199 420.775C533.336 422.607 538.45 418.257 538.45 418.257C538.45 418.257 534.018 424.553 536.404 423.981C538.791 423.408 541.745 420.088 541.745 420.088L546.405 417.226C546.405 417.226 540.836 424.667 542.654 424.324C544.473 423.981 547.655 421.691 547.655 421.691L549.7 420.546C549.7 420.546 545.836 424.438 547.882 425.011C549.928 425.583 554.36 420.89 554.36 420.89L558.224 418.485C558.224 418.485 561.519 420.546 566.52 419.058C571.52 417.57 575.156 416.081 575.156 416.081C575.156 416.081 646.752 422.607 651.525 421.119C656.298 419.63 660.957 419.287 662.207 416.654C663.344 414.021 673.458 327.244 674.595 325.412C675.731 323.581 655.957 315.91 655.957 315.91" stroke="#263238" stroke-miterlimit="10" stroke-linecap="round" stroke-linejoin="round"/>
<path d="M600.272 400.741L571.861 406.465L585.157 403.832C587.316 405.893 589.703 409.899 590.044 417.341C594.362 417.684 599.363 418.142 604.477 418.6C607.659 407.61 601.181 401.542 600.272 400.741Z" fill="#FF665C" stroke="#263238" stroke-miterlimit="10" stroke-linecap="round" stroke-linejoin="round"/>
<path d="M633.683 395.475C633.683 395.475 649.139 400.855 654.139 405.549C659.139 410.243 649.025 397.306 642.206 393.872" stroke="#263238" stroke-miterlimit="10" stroke-linecap="round" stroke-linejoin="round"/>
<path d="M585.157 403.717L571.861 406.35C571.861 406.35 550.269 403.374 548.45 403.946C546.632 404.519 541.745 409.213 539.927 410.701C538.109 412.189 530.949 418.943 532.086 420.775C533.222 422.607 538.336 418.257 538.336 418.257C538.336 418.257 533.904 424.553 536.29 423.981C538.677 423.408 541.632 420.088 541.632 420.088L546.291 417.226C546.291 417.226 540.723 424.667 542.541 424.324C544.359 423.981 547.541 421.691 547.541 421.691L549.587 420.546C549.587 420.546 545.723 424.438 547.768 425.011C549.814 425.583 554.246 420.89 554.246 420.89L558.11 418.485C558.11 418.485 561.406 420.546 566.406 419.058C571.406 417.57 575.043 416.081 575.043 416.081C575.043 416.081 581.18 416.654 589.93 417.341C589.703 409.899 587.203 405.893 585.157 403.717Z" fill="white" stroke="#263238" stroke-miterlimit="10" stroke-linecap="round" stroke-linejoin="round"/>
<path d="M549.7 420.432C549.7 420.432 554.928 415.051 557.087 414.364" stroke="#263238" stroke-miterlimit="10" stroke-linecap="round" stroke-linejoin="round"/>
<path d="M546.405 417.226C546.405 417.226 551.746 411.273 553.905 410.586" stroke="#263238" stroke-miterlimit="10" stroke-linecap="round" stroke-linejoin="round"/>
<path d="M538.336 418.256C538.336 418.256 546.746 408.526 549.701 407.381" stroke="#263238" stroke-miterlimit="10" stroke-linecap="round" stroke-linejoin="round"/>
<path d="M552.996 380.935L546.291 389.521C546.291 389.521 525.722 390.208 522.199 391.124C518.789 392.04 514.244 402.229 514.244 404.404C514.244 406.465 516.289 406.35 517.312 404.976C518.335 403.603 521.517 397.077 521.517 397.077C521.517 397.077 518.108 407.151 518.108 408.182C518.108 409.212 520.38 408.182 520.38 408.182C520.38 408.182 520.153 410.242 521.403 410.815C522.653 411.387 525.381 409.556 525.381 409.556C525.381 409.556 526.063 410.929 528.108 409.785C530.154 408.525 535.154 400.397 536.631 399.481C537.995 398.565 541.973 399.252 541.973 399.252C541.973 399.252 537.995 401.198 536.404 404.518C534.813 407.838 535.154 408.869 536.177 408.525C537.2 408.182 540.723 404.633 542.768 403.603C544.814 402.572 550.041 402.916 551.632 402.229C553.223 401.542 567.202 393.872 567.202 393.872C567.202 393.872 566.974 385.972 562.315 382.881C557.769 379.676 552.996 380.935 552.996 380.935Z" fill="white" stroke="#263238" stroke-miterlimit="10" stroke-linecap="round" stroke-linejoin="round"/>
<path d="M562.428 382.767C557.769 379.676 553.11 380.821 553.11 380.821L548.791 386.202C550.269 386.316 558.906 387.576 559.928 397.65C563.679 395.589 567.315 393.643 567.315 393.643C567.315 393.643 567.088 385.973 562.428 382.767Z" fill="#FF665C" stroke="#263238" stroke-miterlimit="10" stroke-linecap="round" stroke-linejoin="round"/>
<path d="M546.291 389.407C546.291 389.407 551.519 389.064 552.996 392.842" stroke="#263238" stroke-miterlimit="10" stroke-linecap="round" stroke-linejoin="round"/>
<path d="M520.381 408.068L526.745 394.101" stroke="#263238" stroke-miterlimit="10" stroke-linecap="round" stroke-linejoin="round"/>
<path d="M525.381 409.441L531.29 395.017" stroke="#263238" stroke-miterlimit="10" stroke-linecap="round" stroke-linejoin="round"/>
<path d="M521.517 396.963L523.335 393.643" stroke="#263238" stroke-miterlimit="10" stroke-linecap="round" stroke-linejoin="round"/>
<path d="M576.748 398.337L577.77 384.141C577.77 384.141 577.088 377.387 577.088 371.205C577.088 365.137 584.362 326.099 584.362 326.099" stroke="#263238" stroke-miterlimit="10" stroke-linecap="round" stroke-linejoin="round"/>
<path d="M594.931 372.693C594.931 372.693 594.704 382.424 594.249 387.69C593.681 392.956 591.521 399.711 591.521 399.711" stroke="#263238" stroke-miterlimit="10" stroke-linecap="round" stroke-linejoin="round"/>
<path d="M333.437 395.36L273.774 393.643L240.476 428.102L307.526 430.163L333.437 395.36Z" fill="#DCEEFF" stroke="#3DA2FD" stroke-miterlimit="10" stroke-linecap="round" stroke-linejoin="round"/>
<path d="M274.456 399.138L289.911 399.711L274.683 418.829L257.523 417.913L274.456 399.138Z" fill="#DCEEFF" stroke="#3DA2FD" stroke-miterlimit="10" stroke-linecap="round" stroke-linejoin="round"/>
<path d="M320.708 399.94L296.161 399.138L278.547 423.752L301.957 425.125L320.708 399.94Z" fill="#51ABFD" stroke="#3DA2FD" stroke-miterlimit="10" stroke-linecap="round" stroke-linejoin="round"/>
<path d="M307.526 430.163L322.868 367.885L347.756 343.271L333.437 395.36L307.526 430.163Z" fill="#BCDFFF" stroke="#3DA2FD" stroke-miterlimit="10" stroke-linecap="round" stroke-linejoin="round"/>
<path d="M293.775 363.993C293.775 363.993 299.117 368.572 298.207 369.946C297.412 371.319 296.275 370.632 294.684 370.175C293.093 369.717 287.298 365.824 287.298 365.824C287.298 365.824 292.412 362.962 293.775 363.993Z" stroke="#263238" stroke-miterlimit="10" stroke-linecap="round" stroke-linejoin="round"/>
<path d="M287.297 365.824C287.297 365.824 296.503 372.807 295.48 373.723C294.571 374.639 293.548 374.181 290.82 373.494C288.093 372.808 283.661 368.915 283.661 368.915L287.297 365.824Z" fill="white" stroke="#263238" stroke-miterlimit="10" stroke-linecap="round" stroke-linejoin="round"/>
<path d="M283.888 370.403C283.888 370.403 289.116 374.868 289.002 375.441C288.889 375.899 288.32 376.929 286.388 376.585C284.457 376.242 280.479 373.151 280.479 373.151L283.888 370.403Z" fill="white" stroke="#263238" stroke-miterlimit="10" stroke-linecap="round" stroke-linejoin="round"/>
<path d="M261.5 373.151C261.5 373.151 276.615 358.841 277.07 358.612C277.524 358.383 288.32 356.666 291.161 356.666C294.003 356.666 301.503 362.619 300.594 363.191C299.685 363.764 294.23 362.39 294.23 362.39H291.048C291.048 362.39 284.343 370.174 278.092 373.838C271.956 377.501 262.751 380.821 262.751 380.821L261.5 373.151Z" fill="white" stroke="#263238" stroke-miterlimit="10" stroke-linecap="round" stroke-linejoin="round"/>
<path d="M275.138 364.336C274.569 364.336 274.001 363.878 274.001 363.306C273.888 362.619 274.456 362.046 275.024 361.932L307.753 358.841C308.094 358.841 308.322 359.07 308.435 359.413C308.549 359.757 308.208 359.986 307.867 360.1L275.251 364.336C275.138 364.336 275.138 364.336 275.138 364.336Z" fill="#263238"/>
<path d="M274.911 366.74C274.911 366.74 286.729 361.474 288.548 360.902C290.366 360.329 301.049 362.619 300.594 363.191C300.139 363.764 300.48 364.794 298.207 365.366C295.935 365.939 290.593 365.595 290.593 365.595C290.593 365.595 284.002 371.777 280.479 374.639C276.956 377.387 274.229 379.218 270.706 379.676C267.183 380.02 264.228 379.791 264.228 379.791" fill="white"/>
<path d="M274.911 366.74C274.911 366.74 286.729 361.474 288.548 360.902C290.366 360.329 301.049 362.619 300.594 363.191C300.139 363.764 300.48 364.794 298.207 365.366C295.935 365.939 290.593 365.595 290.593 365.595C290.593 365.595 284.002 371.777 280.479 374.639C276.956 377.387 274.229 379.218 270.706 379.676C267.183 380.02 264.228 379.791 264.228 379.791" stroke="#263238" stroke-miterlimit="10" stroke-linecap="round" stroke-linejoin="round"/>
<path d="M252.636 374.639L261.5 373.151L263.205 384.943L254.114 386.66L252.636 374.639Z" fill="white" stroke="#263238" stroke-miterlimit="10" stroke-linecap="round" stroke-linejoin="round"/>
<path d="M153.994 315.567C153.994 315.567 167.404 318.2 173.086 322.092C178.768 325.985 191.496 353.918 193.542 358.612C195.701 363.191 200.247 373.609 200.247 373.609C200.247 373.609 204.111 371.434 205.929 373.265C207.747 375.097 208.088 377.158 208.088 377.158C208.088 377.158 249.909 371.434 252.75 374.639C255.591 377.845 254.909 383.111 254.114 386.66C253.432 390.209 253.773 390.209 249.568 392.04C245.363 393.872 203.77 405.435 191.837 407.152C179.904 408.984 180.586 397.993 180.586 397.993C180.586 397.993 183.768 370.976 169.677 353.231C155.585 335.487 151.607 328.16 149.675 322.436C147.63 316.712 153.994 315.567 153.994 315.567Z" fill="white" stroke="#263238" stroke-miterlimit="10" stroke-linecap="round" stroke-linejoin="round"/>
<path d="M207.974 377.043C207.974 377.043 199.792 389.522 197.065 392.498" stroke="#263238" stroke-miterlimit="10" stroke-linecap="round" stroke-linejoin="round"/>
<path d="M199.906 375.555L194.11 380.707" stroke="#263238" stroke-miterlimit="10" stroke-linecap="round" stroke-linejoin="round"/>
<path d="M92.7398 351.743L62.1697 359.986C59.4422 360.787 56.9421 362.275 55.0101 364.45C51.8281 368.228 50.6917 373.38 52.169 378.188L78.9889 465.652L116.037 446.19L92.7398 351.743Z" fill="#031627" stroke="#263238" stroke-miterlimit="10" stroke-linecap="round" stroke-linejoin="round"/>
<path d="M166.835 327.244C166.835 327.244 168.767 331.022 179.336 341.783C189.223 351.743 192.973 363.764 190.7 377.845C188.882 388.949 189.109 400.741 186.723 411.731L116.037 446.19L91.1487 335.83C91.1487 335.83 112.173 322.894 125.696 318.429C139.22 313.964 149.561 314.651 153.88 315.567C158.312 316.483 161.38 317.513 161.38 317.513" fill="white"/>
<path d="M166.835 327.244C166.835 327.244 168.767 331.022 179.336 341.783C189.223 351.743 192.973 363.764 190.7 377.845C188.882 388.949 189.109 400.741 186.723 411.731L116.037 446.19L91.1487 335.83C91.1487 335.83 112.173 322.894 125.696 318.429C139.22 313.964 149.561 314.651 153.88 315.567C158.312 316.483 161.38 317.513 161.38 317.513" stroke="#263238" stroke-miterlimit="10" stroke-linecap="round" stroke-linejoin="round"/>
<path d="M161.721 348.309C161.721 348.309 176.836 363.191 177.972 371.777C178.995 380.249 177.632 401.542 177.632 401.542" stroke="#263238" stroke-miterlimit="10" stroke-linecap="round" stroke-linejoin="round"/>
<path d="M158.085 343.958L160.017 324.382L149.675 322.436C149.675 322.436 146.493 326.901 148.425 333.197C150.244 339.608 158.085 343.958 158.085 343.958Z" fill="white" stroke="#263238" stroke-miterlimit="10" stroke-linecap="round" stroke-linejoin="round"/>
<path d="M159.903 324.382L168.654 337.433L158.994 336.059L159.903 324.382Z" fill="white" stroke="#263238" stroke-miterlimit="10" stroke-linecap="round" stroke-linejoin="round"/>
<path d="M166.494 245.734C166.494 245.734 169.335 251.458 169.676 255.808C170.017 260.273 168.426 262.448 170.926 265.31C173.427 268.172 182.518 267.485 180.7 271.606C178.882 275.728 175.7 278.59 175.7 278.59C175.7 278.59 173.768 288.664 172.858 295.304C171.949 301.944 172.518 302.631 169.108 303.203C165.699 303.89 159.676 302.86 159.676 302.86C159.676 302.86 155.016 309.843 153.084 319.001C151.153 328.16 152.744 334.8 152.744 334.8L135.47 325.298C135.47 325.298 128.878 327.473 125.469 313.964C122.06 300.456 132.06 260.273 138.311 252.03C144.561 243.787 166.494 245.734 166.494 245.734Z" fill="white" stroke="#263238" stroke-miterlimit="10" stroke-linecap="round" stroke-linejoin="round"/>
<path d="M140.129 263.707C140.129 263.707 142.288 273.209 141.038 275.041C139.788 276.987 134.788 270.347 134.788 270.347C134.788 270.347 137.97 259.586 140.129 263.707Z" fill="#031627" stroke="#031627" stroke-miterlimit="10" stroke-linecap="round" stroke-linejoin="round"/>
<path d="M135.47 325.412L150.812 328.503L158.085 343.958L150.243 339.608L146.38 353.231L122.287 326.672L135.47 325.412Z" fill="white" stroke="#263238" stroke-miterlimit="10" stroke-linecap="round" stroke-linejoin="round"/>
<path d="M150.243 339.608L150.812 328.503L158.085 343.958L150.243 339.608Z" fill="white" stroke="#263238" stroke-miterlimit="10" stroke-linecap="round" stroke-linejoin="round"/>
<path d="M131.151 289.236C133.424 293.472 138.197 290.61 138.197 290.61L150.812 298.395L140.811 294.617L126.719 305.722C126.606 305.722 126.947 281.108 131.151 289.236Z" fill="#031627" stroke="#031627" stroke-miterlimit="10" stroke-linecap="round" stroke-linejoin="round"/>
<path d="M171.836 284.886C171.836 284.886 165.244 286.832 163.312 283.627" stroke="#263238" stroke-miterlimit="10" stroke-linecap="round" stroke-linejoin="round"/>
<path d="M166.722 264.737C167.29 266.684 167.063 268.401 166.267 268.63C165.472 268.859 164.335 267.485 163.767 265.653C163.199 263.707 163.426 261.99 164.222 261.761C165.017 261.418 166.154 262.791 166.722 264.737Z" fill="#263238"/>
<path d="M160.244 259.357C160.244 259.357 163.085 254.892 167.176 257.411" stroke="#263238" stroke-miterlimit="10" stroke-linecap="round" stroke-linejoin="round"/>
<path d="M170.586 236.919C170.586 236.919 170.927 239.437 166.495 245.734C162.062 252.03 144.789 259.929 140.129 263.707C135.47 267.485 129.447 299.769 130.356 308.24C131.265 316.826 132.288 319.917 136.947 319.917C141.607 319.917 144.789 316.139 144.789 316.139C144.789 316.139 143.198 330.335 136.038 333.197C128.765 336.059 119.673 330.335 111.832 331.022C103.991 331.709 96.4901 338.578 92.7399 341.44C88.9897 344.302 87.3987 346.82 79.8982 342.356C72.3977 337.891 75.4661 331.251 75.4661 331.251C75.4661 331.251 82.0574 334.685 85.8076 326.557C89.5579 318.315 92.399 324.382 88.9897 304.691C85.5804 285.115 84.5576 273.667 96.2628 252.259C107.854 230.737 121.946 228.561 121.946 228.561C121.946 228.561 138.538 226.386 170.586 236.919Z" fill="#031627" stroke="#031627" stroke-miterlimit="10" stroke-linecap="round" stroke-linejoin="round"/>
<path d="M210.475 418.257C210.475 418.257 239.681 405.893 241.84 405.893C243.999 405.893 263.546 415.395 263.546 415.395L264.796 417.57C264.796 417.57 266.046 418.257 265.137 420.088C264.228 422.035 257.864 421.691 257.864 421.691C257.864 421.691 262.864 422.607 260.705 423.866C258.546 425.126 241.84 423.866 241.84 423.866C241.84 423.866 234.567 427.988 227.407 429.247C220.134 430.506 208.884 428.56 208.884 428.56L210.475 418.257Z" fill="white" stroke="#263238" stroke-miterlimit="10" stroke-linecap="round" stroke-linejoin="round"/>
<path d="M264.683 417.684L245.477 409.213" stroke="#263238" stroke-miterlimit="10" stroke-linecap="round" stroke-linejoin="round"/>
<path d="M265.024 420.203L244.681 413.219" stroke="#263238" stroke-miterlimit="10" stroke-linecap="round" stroke-linejoin="round"/>
<path d="M257.864 421.806C257.864 421.806 249.909 419.745 248.545 419.402C247.182 419.058 245.136 419.058 244.227 419.173" stroke="#263238" stroke-miterlimit="10" stroke-linecap="round" stroke-linejoin="round"/>
<path d="M199.792 417.341L210.475 418.257L209.452 430.964L199.11 431.536L199.792 417.341Z" fill="white" stroke="#263238" stroke-miterlimit="10" stroke-linecap="round" stroke-linejoin="round"/>
<path d="M132.97 336.059C132.97 336.059 120.469 323.123 112.855 322.436C105.354 321.864 88.6487 326.328 88.6487 346.248C88.6487 366.168 98.422 398.108 99.6721 418.6C100.922 439.092 110.014 450.884 112.855 450.54C115.696 450.197 150.471 448.365 171.268 441.954C191.951 435.658 197.633 435.314 199.224 431.536C200.815 427.759 201.383 420.775 199.906 417.341C198.315 413.906 138.425 414.822 137.174 414.822C135.924 414.822 127.401 355.979 127.401 355.979" fill="white"/>
<path d="M132.97 336.059C132.97 336.059 120.469 323.123 112.855 322.436C105.354 321.864 88.6487 326.328 88.6487 346.248C88.6487 366.168 98.422 398.108 99.6721 418.6C100.922 439.092 110.014 450.884 112.855 450.54C115.696 450.197 150.471 448.365 171.268 441.954C191.951 435.658 197.633 435.314 199.224 431.536C200.815 427.759 201.383 420.775 199.906 417.341C198.315 413.906 138.425 414.822 137.174 414.822C135.924 414.822 127.401 355.979 127.401 355.979" stroke="#263238" stroke-miterlimit="10" stroke-linecap="round" stroke-linejoin="round"/>
<path d="M133.879 415.166C133.879 415.166 120.355 419.287 113.764 427.53" stroke="#263238" stroke-miterlimit="10" stroke-linecap="round" stroke-linejoin="round"/>
<path d="M132.288 412.304C132.288 412.304 118.764 414.479 113.196 418.6" stroke="#263238" stroke-miterlimit="10" stroke-linecap="round" stroke-linejoin="round"/>
</svg>
